<svg xmlns="http://www.w3.org/2000/svg" xmlns:xlink="http://www.w3.org/1999/xlink" width="128" zoomAndPan="magnify" viewBox="0 0 96 95.999999" height="128" preserveAspectRatio="xMidYMid meet" version="1.0"><defs><g/><clipPath id="0bbe261504"><path d="M 14.457031 1.660156 L 86.457031 1.660156 L 86.457031 94.660156 L 14.457031 94.660156 Z M 14.457031 1.660156 " clip-rule="nonzero"/></clipPath></defs><g clip-path="url(#0bbe261504)"><path fill="#5271ff" d="M 81.734375 88.730469 C 81.734375 89.382812 81.203125 89.914062 80.554688 89.914062 L 20.359375 89.914062 C 19.707031 89.914062 19.179688 89.382812 19.179688 88.730469 L 19.179688 7.660156 C 19.179688 7.007812 19.707031 6.476562 20.359375 6.476562 L 63.441406 6.476562 L 63.441406 18.90625 C 63.441406 22.164062 66.089844 24.820312 69.339844 24.820312 L 81.734375 24.820312 Z M 68.160156 8.347656 L 79.871094 20.085938 L 69.339844 20.085938 C 68.691406 20.085938 68.160156 19.554688 68.160156 18.90625 Z M 86.308594 20.136719 C 86.296875 20.113281 86.289062 20.09375 86.285156 20.070312 C 86.050781 19.429688 85.507812 19.140625 85.050781 18.683594 C 84.410156 18.03125 83.757812 17.386719 83.117188 16.738281 C 80.898438 14.511719 78.675781 12.292969 76.460938 10.066406 C 74.820312 8.398438 73.226562 6.675781 71.578125 5.015625 C 70.765625 4.195312 69.9375 3.398438 69.085938 2.625 C 68.238281 1.855469 67.40625 1.648438 66.253906 1.671875 C 64 1.710938 61.75 1.742188 59.492188 1.742188 L 20.359375 1.742188 C 17.105469 1.742188 14.457031 4.398438 14.457031 7.660156 L 14.457031 88.730469 C 14.457031 91.992188 17.105469 94.648438 20.359375 94.648438 L 80.554688 94.648438 C 83.804688 94.648438 86.457031 91.992188 86.457031 88.730469 L 86.457031 21.695312 C 86.457031 21.191406 86.46875 20.632812 86.308594 20.136719 " fill-opacity="1" fill-rule="nonzero"/></g><g fill="#5271ff" fill-opacity="1"><g transform="translate(23.954434, 67.308211)"><g><path d="M 22.78125 -18.328125 L 22.78125 -29.375 L 28.5625 -29.375 L 28.5625 0 L 22.78125 0 L 22.78125 -13.375 L 9.625 -13.375 L 9.625 0 L 3.8125 0 L 3.8125 -29.375 L 9.625 -29.375 L 9.625 -18.328125 Z M 22.78125 -18.328125 "/></g></g></g><g fill="#5271ff" fill-opacity="1"><g transform="translate(56.355434, 67.308211)"><g><path d="M 18.609375 0 L 1.171875 0 L 1.171875 -4.59375 L 11.890625 -17.34375 L 11.765625 -17.765625 L 1.671875 -17.765625 L 1.671875 -22.171875 L 18.4375 -22.171875 L 18.4375 -17.578125 L 7.71875 -4.84375 L 7.859375 -4.421875 L 18.609375 -4.421875 Z M 18.609375 0 "/></g></g></g></svg>